<?xml version="1.0" encoding="UTF-8" standalone="no"?>
<svg
   xmlns:dc="http://purl.org/dc/elements/1.1/"
   xmlns:cc="http://creativecommons.org/ns#"
   xmlns:rdf="http://www.w3.org/1999/02/22-rdf-syntax-ns#"
   xmlns:svg="http://www.w3.org/2000/svg"
   xmlns="http://www.w3.org/2000/svg"
   xmlns:sodipodi="http://sodipodi.sourceforge.net/DTD/sodipodi-0.dtd"
   xmlns:inkscape="http://www.inkscape.org/namespaces/inkscape"
   version="1.0"
   width="1280.000000pt"
   height="613.000000pt"
   viewBox="0 0 1280.000000 613.000000"
   preserveAspectRatio="xMidYMid meet"
   id="svg8"
   sodipodi:docname="paperclip3b.svg"
   inkscape:version="0.92.5 (2060ec1f9f, 2020-04-08)">
  <defs
     id="defs12" />
  <sodipodi:namedview
     pagecolor="#ffffff"
     bordercolor="#666666"
     borderopacity="1"
     objecttolerance="10"
     gridtolerance="10"
     guidetolerance="10"
     inkscape:pageopacity="0"
     inkscape:pageshadow="2"
     inkscape:window-width="1920"
     inkscape:window-height="1016"
     id="namedview10"
     showgrid="false"
     inkscape:zoom="0.86920166"
     inkscape:cx="817.96633"
     inkscape:cy="127.60868"
     inkscape:window-x="0"
     inkscape:window-y="0"
     inkscape:window-maximized="1"
     inkscape:current-layer="g6" />
  <metadata
     id="metadata2">
Created by potrace 1.15, written by Peter Selinger 2001-2017
<rdf:RDF>
  <cc:Work
     rdf:about="">
    <dc:format>image/svg+xml</dc:format>
    <dc:type
       rdf:resource="http://purl.org/dc/dcmitype/StillImage" />
    <dc:title></dc:title>
  </cc:Work>
</rdf:RDF>
</metadata>
  <g
     transform="translate(0.000000,613.000000) scale(0.100000,-0.100000)"
     fill=" #dae90c"
     stroke="none"
     id="g6">
    <path
       d="m 7504.9694,3595.2263 c 310.4591,-113.4936 997.8654,-276.8136 1129.895,-554.7582 149.7806,-313.0715 141.4374,-643.0205 -21.3055,-887.871 -95.006,-141.329 -235.7552,-246.3321 -412.1839,-306.0808 l -95.232,-32.3245 -3089.9433,18.9428 c -2691.9464,17.1165 -3100.9219,22.0209 -3175.8276,35.5531 -177.7825,31.2633 -271.3683,89.9293 -327.5786,201.3312 l -34.5091,69.2468 1.1788,165.9959 c 2.058,148.9891 4.2213,171.9743 24.583,222.831 45.7941,111.6776 135.2961,182.0438 283.5906,222.9919 62.1192,16.5592 154.1239,16.9059 2110.0747,3.0159 1948.9508,-13.8402 2046.9554,-13.5362 2085.0752,3.1935 86.2747,38.3883 138.8274,116.0172 139.4664,206.0149 0.6321,88.9977 -53.7843,171.3862 -136.5407,205.9747 -45.8568,20.3262 -4096.7192,54.0931 -4209.8442,36.8959 -457.5353,-73.7527 -723.6802,-374.8703 -748.0315,-846.7094 -14.0377,-286.9075 58.4621,-498.4277 231.2363,-671.6589 130.0735,-130.927 288.5156,-210.0542 519.1618,-260.6933 80.8772,-17.5748 235.8662,-19.6754 3214.7911,-40.8299 3023.9238,-21.474 3132.9281,-21.2481 3210.054,-3.7954 314.5104,70.7684 561.6192,226.0176 747.3401,467.7048 75.7012,98.4649 168.0481,287.8139 198.8711,403.598 82.2704,319.4238 39.906,690.734 -115.8673,1004.8481 -88.7266,179.6346 -259.3021,380.851 -406.6024,479.8995 -100.5216,67.7155 -238.0637,132.6938 -355.8264,166.531 l -1013.177,180.3516 c -184.847,-187.1517 9.2427,-518.7775 247.1514,-490.1992 z"
       id="path4"
       inkscape:connector-curvature="0"
       sodipodi:nodetypes="ccccccccccccscscccccscccccccc" />
  </g>
</svg>
