<?xml version="1.0" encoding="utf-8"?>
<!-- Svg Vector Icons : http://www.onlinewebfonts.com/icon -->
<!DOCTYPE svg PUBLIC "-//W3C//DTD SVG 1.1//EN" "http://www.w3.org/Graphics/SVG/1.1/DTD/svg11.dtd">
<svg version="1.1" xmlns="http://www.w3.org/2000/svg" xmlns:xlink="http://www.w3.org/1999/xlink" x="0px" y="0px" viewBox="0 0 1000 1000" enable-background="new 0 0 1000 1000" xml:space="preserve">
<metadata> Svg Vector Icons : http://www.onlinewebfonts.com/icon </metadata>
<g><g><path d="M349.3,461.9c-45.9,0-83.2,37.2-83.2,83.2v242.5c0,45.9,37.2,83.2,83.2,83.2h12.4c45.9,0,83.2-37.2,83.2-83.2V545c0-45.9-37.2-83.2-83.2-83.2H349.3z"/>
<path d="M621.9,870.7h12.4c45.9,0,83.2-37.2,83.2-83.2V406.4c0-45.9-37.2-83.2-83.2-83.2h-12.4c-45.9,0-83.2,37.2-83.2,83.2v381.1C538.7,833.5,576,870.7,621.9,870.7z"/>
<path d="M906.8,870.7c45.9,0,83.2-37.2,83.2-83.2V212.4c0-45.9-37.2-83.2-83.2-83.2h-12.4c-45.9,0-83.1,37.2-83.1,83.2v575.2c0,45.9,37.2,83.2,83.1,83.2L906.8,870.7L906.8,870.7z"/>
<path d="M105.6,561.2H93.2c-45.9,0-83.2,37.2-83.2,83.2v143.2c0,45.9,37.2,83.2,83.2,83.2h12.4c45.9,0,83.2-37.2,83.2-83.2V644.4C188.7,598.4,151.5,561.2,105.6,561.2z"/></g><g></g><g></g><g></g><g></g><g></g><g></g><g></g><g></g><g></g><g></g><g></g><g></g><g></g><g></g><g></g></g>
</svg>